<mxfile host="app.diagrams.net" modified="2023-12-15T20:57:05.121Z" agent="Mozilla/5.0 (Windows NT 10.0; Win64; x64) AppleWebKit/537.36 (KHTML, like Gecko) Chrome/120.0.0.0 Safari/537.36" etag="bv-kXHF8o-56eOWmg94i" version="22.1.11" type="device">
  <diagram name="Страница — 1" id="awomu2fCoxjfxk_xA1QI">
    <mxGraphModel dx="2391" dy="1137" grid="1" gridSize="10" guides="1" tooltips="1" connect="1" arrows="1" fold="1" page="1" pageScale="1" pageWidth="827" pageHeight="1169" math="0" shadow="0">
      <root>
        <mxCell id="0" />
        <mxCell id="1" parent="0" />
        <mxCell id="ef9r7Cy3p4y6cCnLXRJu-1" value="IStrategy" style="swimlane;fontStyle=1;align=center;verticalAlign=top;childLayout=stackLayout;horizontal=1;startSize=26;horizontalStack=0;resizeParent=1;resizeParentMax=0;resizeLast=0;collapsible=1;marginBottom=0;whiteSpace=wrap;html=1;" parent="1" vertex="1">
          <mxGeometry x="460" y="90" width="160" height="90" as="geometry" />
        </mxCell>
        <mxCell id="ef9r7Cy3p4y6cCnLXRJu-3" value="" style="line;strokeWidth=1;fillColor=none;align=left;verticalAlign=middle;spacingTop=-1;spacingLeft=3;spacingRight=3;rotatable=0;labelPosition=right;points=[];portConstraint=eastwest;strokeColor=inherit;" parent="ef9r7Cy3p4y6cCnLXRJu-1" vertex="1">
          <mxGeometry y="26" width="160" height="8" as="geometry" />
        </mxCell>
        <mxCell id="ef9r7Cy3p4y6cCnLXRJu-4" value="+ Set(): void&lt;br&gt;+ Output(): void&lt;br&gt;+ OutputXML(): void" style="text;strokeColor=none;fillColor=none;align=left;verticalAlign=top;spacingLeft=4;spacingRight=4;overflow=hidden;rotatable=0;points=[[0,0.5],[1,0.5]];portConstraint=eastwest;whiteSpace=wrap;html=1;" parent="ef9r7Cy3p4y6cCnLXRJu-1" vertex="1">
          <mxGeometry y="34" width="160" height="56" as="geometry" />
        </mxCell>
        <mxCell id="ef9r7Cy3p4y6cCnLXRJu-5" value="Cinema" style="swimlane;fontStyle=1;align=center;verticalAlign=top;childLayout=stackLayout;horizontal=1;startSize=26;horizontalStack=0;resizeParent=1;resizeParentMax=0;resizeLast=0;collapsible=1;marginBottom=0;whiteSpace=wrap;html=1;" parent="1" vertex="1">
          <mxGeometry x="100" y="30" width="180" height="200" as="geometry" />
        </mxCell>
        <mxCell id="ef9r7Cy3p4y6cCnLXRJu-6" value="- name : string&lt;br&gt;- year : int&lt;br&gt;- rating : int" style="text;strokeColor=none;fillColor=none;align=left;verticalAlign=top;spacingLeft=4;spacingRight=4;overflow=hidden;rotatable=0;points=[[0,0.5],[1,0.5]];portConstraint=eastwest;whiteSpace=wrap;html=1;" parent="ef9r7Cy3p4y6cCnLXRJu-5" vertex="1">
          <mxGeometry y="26" width="180" height="54" as="geometry" />
        </mxCell>
        <mxCell id="ef9r7Cy3p4y6cCnLXRJu-7" value="" style="line;strokeWidth=1;fillColor=none;align=left;verticalAlign=middle;spacingTop=-1;spacingLeft=3;spacingRight=3;rotatable=0;labelPosition=right;points=[];portConstraint=eastwest;strokeColor=inherit;" parent="ef9r7Cy3p4y6cCnLXRJu-5" vertex="1">
          <mxGeometry y="80" width="180" height="8" as="geometry" />
        </mxCell>
        <mxCell id="ef9r7Cy3p4y6cCnLXRJu-8" value="+ Name : string&lt;br&gt;+ Year : int&lt;br&gt;+ Rating : int&lt;br&gt;+ Cinema(IStrategy cinema)&lt;br&gt;+ Strategy : IStrategy&lt;br&gt;+ Set() : void&lt;br&gt;+ Output() : void" style="text;strokeColor=none;fillColor=none;align=left;verticalAlign=top;spacingLeft=4;spacingRight=4;overflow=hidden;rotatable=0;points=[[0,0.5],[1,0.5]];portConstraint=eastwest;whiteSpace=wrap;html=1;" parent="ef9r7Cy3p4y6cCnLXRJu-5" vertex="1">
          <mxGeometry y="88" width="180" height="112" as="geometry" />
        </mxCell>
        <mxCell id="ef9r7Cy3p4y6cCnLXRJu-9" value="Text" style="swimlane;fontStyle=1;align=center;verticalAlign=top;childLayout=stackLayout;horizontal=1;startSize=26;horizontalStack=0;resizeParent=1;resizeParentMax=0;resizeLast=0;collapsible=1;marginBottom=0;whiteSpace=wrap;html=1;" parent="1" vertex="1">
          <mxGeometry x="330" y="255" width="210" height="90" as="geometry" />
        </mxCell>
        <mxCell id="ef9r7Cy3p4y6cCnLXRJu-10" value="- genre : string" style="text;strokeColor=none;fillColor=none;align=left;verticalAlign=top;spacingLeft=4;spacingRight=4;overflow=hidden;rotatable=0;points=[[0,0.5],[1,0.5]];portConstraint=eastwest;whiteSpace=wrap;html=1;" parent="ef9r7Cy3p4y6cCnLXRJu-9" vertex="1">
          <mxGeometry y="26" width="210" height="26" as="geometry" />
        </mxCell>
        <mxCell id="ef9r7Cy3p4y6cCnLXRJu-11" value="" style="line;strokeWidth=1;fillColor=none;align=left;verticalAlign=middle;spacingTop=-1;spacingLeft=3;spacingRight=3;rotatable=0;labelPosition=right;points=[];portConstraint=eastwest;strokeColor=inherit;" parent="ef9r7Cy3p4y6cCnLXRJu-9" vertex="1">
          <mxGeometry y="52" width="210" height="8" as="geometry" />
        </mxCell>
        <mxCell id="ef9r7Cy3p4y6cCnLXRJu-12" value="+ GetOutput(Cinema cinema) : string" style="text;strokeColor=none;fillColor=none;align=left;verticalAlign=top;spacingLeft=4;spacingRight=4;overflow=hidden;rotatable=0;points=[[0,0.5],[1,0.5]];portConstraint=eastwest;whiteSpace=wrap;html=1;" parent="ef9r7Cy3p4y6cCnLXRJu-9" vertex="1">
          <mxGeometry y="60" width="210" height="30" as="geometry" />
        </mxCell>
        <mxCell id="ef9r7Cy3p4y6cCnLXRJu-13" value="XML" style="swimlane;fontStyle=1;align=center;verticalAlign=top;childLayout=stackLayout;horizontal=1;startSize=26;horizontalStack=0;resizeParent=1;resizeParentMax=0;resizeLast=0;collapsible=1;marginBottom=0;whiteSpace=wrap;html=1;" parent="1" vertex="1">
          <mxGeometry x="550" y="255" width="220" height="90" as="geometry" />
        </mxCell>
        <mxCell id="ef9r7Cy3p4y6cCnLXRJu-14" value="- seriesCount : int" style="text;strokeColor=none;fillColor=none;align=left;verticalAlign=top;spacingLeft=4;spacingRight=4;overflow=hidden;rotatable=0;points=[[0,0.5],[1,0.5]];portConstraint=eastwest;whiteSpace=wrap;html=1;" parent="ef9r7Cy3p4y6cCnLXRJu-13" vertex="1">
          <mxGeometry y="26" width="220" height="26" as="geometry" />
        </mxCell>
        <mxCell id="ef9r7Cy3p4y6cCnLXRJu-15" value="" style="line;strokeWidth=1;fillColor=none;align=left;verticalAlign=middle;spacingTop=-1;spacingLeft=3;spacingRight=3;rotatable=0;labelPosition=right;points=[];portConstraint=eastwest;strokeColor=inherit;" parent="ef9r7Cy3p4y6cCnLXRJu-13" vertex="1">
          <mxGeometry y="52" width="220" height="8" as="geometry" />
        </mxCell>
        <mxCell id="ef9r7Cy3p4y6cCnLXRJu-16" value="+ GetOutput(Cinema cinema) : string" style="text;strokeColor=none;fillColor=none;align=left;verticalAlign=top;spacingLeft=4;spacingRight=4;overflow=hidden;rotatable=0;points=[[0,0.5],[1,0.5]];portConstraint=eastwest;whiteSpace=wrap;html=1;" parent="ef9r7Cy3p4y6cCnLXRJu-13" vertex="1">
          <mxGeometry y="60" width="220" height="30" as="geometry" />
        </mxCell>
        <mxCell id="ef9r7Cy3p4y6cCnLXRJu-17" value="" style="endArrow=block;dashed=1;endFill=0;endSize=12;html=1;rounded=0;entryX=0.427;entryY=1.009;entryDx=0;entryDy=0;entryPerimeter=0;exitX=0.624;exitY=0.017;exitDx=0;exitDy=0;exitPerimeter=0;" parent="1" source="ef9r7Cy3p4y6cCnLXRJu-9" target="ef9r7Cy3p4y6cCnLXRJu-4" edge="1">
          <mxGeometry width="160" relative="1" as="geometry">
            <mxPoint x="230" y="350" as="sourcePoint" />
            <mxPoint x="390" y="350" as="targetPoint" />
            <Array as="points">
              <mxPoint x="460" y="220" />
              <mxPoint x="528" y="220" />
            </Array>
          </mxGeometry>
        </mxCell>
        <mxCell id="ef9r7Cy3p4y6cCnLXRJu-18" value="" style="endArrow=block;dashed=1;endFill=0;endSize=12;html=1;rounded=0;exitX=0.365;exitY=0.017;exitDx=0;exitDy=0;exitPerimeter=0;" parent="1" edge="1">
          <mxGeometry width="160" relative="1" as="geometry">
            <mxPoint x="628.3" y="257.21" as="sourcePoint" />
            <mxPoint x="528" y="180" as="targetPoint" />
            <Array as="points">
              <mxPoint x="628" y="220" />
              <mxPoint x="528" y="220" />
            </Array>
          </mxGeometry>
        </mxCell>
        <mxCell id="ef9r7Cy3p4y6cCnLXRJu-19" value="" style="endArrow=diamondThin;endFill=0;endSize=24;html=1;rounded=0;entryX=1.009;entryY=0.196;entryDx=0;entryDy=0;entryPerimeter=0;exitX=0.004;exitY=0.255;exitDx=0;exitDy=0;exitPerimeter=0;" parent="1" source="ef9r7Cy3p4y6cCnLXRJu-4" target="ef9r7Cy3p4y6cCnLXRJu-8" edge="1">
          <mxGeometry width="160" relative="1" as="geometry">
            <mxPoint x="300" y="310" as="sourcePoint" />
            <mxPoint x="460" y="310" as="targetPoint" />
          </mxGeometry>
        </mxCell>
        <mxCell id="KkJfEO4WAklSspXdNCNP-1" value="Program" style="swimlane;fontStyle=1;align=center;verticalAlign=top;childLayout=stackLayout;horizontal=1;startSize=26;horizontalStack=0;resizeParent=1;resizeParentMax=0;resizeLast=0;collapsible=1;marginBottom=0;whiteSpace=wrap;html=1;" vertex="1" parent="1">
          <mxGeometry x="40" y="345" width="180" height="60" as="geometry" />
        </mxCell>
        <mxCell id="KkJfEO4WAklSspXdNCNP-3" value="" style="line;strokeWidth=1;fillColor=none;align=left;verticalAlign=middle;spacingTop=-1;spacingLeft=3;spacingRight=3;rotatable=0;labelPosition=right;points=[];portConstraint=eastwest;strokeColor=inherit;" vertex="1" parent="KkJfEO4WAklSspXdNCNP-1">
          <mxGeometry y="26" width="180" height="8" as="geometry" />
        </mxCell>
        <mxCell id="KkJfEO4WAklSspXdNCNP-4" value="- Main() : void" style="text;strokeColor=none;fillColor=none;align=left;verticalAlign=top;spacingLeft=4;spacingRight=4;overflow=hidden;rotatable=0;points=[[0,0.5],[1,0.5]];portConstraint=eastwest;whiteSpace=wrap;html=1;" vertex="1" parent="KkJfEO4WAklSspXdNCNP-1">
          <mxGeometry y="34" width="180" height="26" as="geometry" />
        </mxCell>
        <mxCell id="KkJfEO4WAklSspXdNCNP-5" value="" style="endArrow=diamondThin;endFill=0;endSize=24;html=1;rounded=0;exitX=0.394;exitY=1.021;exitDx=0;exitDy=0;exitPerimeter=0;entryX=0.75;entryY=0;entryDx=0;entryDy=0;" edge="1" parent="1" source="ef9r7Cy3p4y6cCnLXRJu-8" target="KkJfEO4WAklSspXdNCNP-1">
          <mxGeometry width="160" relative="1" as="geometry">
            <mxPoint x="471" y="148" as="sourcePoint" />
            <mxPoint x="90" y="290" as="targetPoint" />
          </mxGeometry>
        </mxCell>
      </root>
    </mxGraphModel>
  </diagram>
</mxfile>
